<svg id="Layer_1" data-name="Layer 1" xmlns="http://www.w3.org/2000/svg" xmlns:xlink="http://www.w3.org/1999/xlink" viewBox="0 0 6.2 6.2"><defs><style>.cls-1{fill:none;}.cls-2{fill:url(#linear-gradient);}.cls-3{fill:#919191;}</style><linearGradient id="linear-gradient" x1="1.55" y1="5.04" x2="3.5" y2="-0.23" gradientUnits="userSpaceOnUse"><stop offset="0" stop-color="#414042"/><stop offset="1" stop-color="#1f1f1f"/></linearGradient></defs><title>blank</title><rect class="cls-1" width="6.2" height="6.2"/><path class="cls-2" d="M.55.6l2.6.5L5.65.6h0a.24.24,0,0,1,.21.12.24.24,0,0,1,0,.29L4.15,3,3.33,5.43a.25.25,0,0,1-.23.17.26.26,0,0,1-.24-.17L2,2.93.31,1a.26.26,0,0,1,0-.29A.25.25,0,0,1,.5.6Z"/><path class="cls-3" d="M3.1,5.35l-.87-2.5L.5.85l2.6.5L5.7.85,4,2.85,3.1,5.35m0,.5a.51.51,0,0,0,.47-.34L4.41,3.1,6.07,1.18A.5.5,0,0,0,6.13.6.5.5,0,0,0,5.7.35H5.6L3.1.84.59.36H.5A.48.48,0,0,0,.07.6a.5.5,0,0,0,0,.58L1.79,3.1l.84,2.41a.51.51,0,0,0,.47.34Z"/></svg>