<svg id="Layer_1" data-name="Layer 1" xmlns="http://www.w3.org/2000/svg" xmlns:xlink="http://www.w3.org/1999/xlink" viewBox="0 0 6.26 6.27"><defs><style>.cls-1{fill:url(#linear-gradient);}.cls-2{fill:#919191;}</style><linearGradient id="linear-gradient" x1="2.06" y1="2.88" x2="3.82" y2="0.91" gradientUnits="userSpaceOnUse"><stop offset="0" stop-color="#414042"/><stop offset="1" stop-color="#1f1f1f"/></linearGradient></defs><title>blank_1</title><path class="cls-1" d="M.58.64l2.6.5L5.69.64h0A.25.25,0,0,1,6,.76a.26.26,0,0,1,0,.29l-1.73,2L3.37,5.47a.25.25,0,0,1-.23.17.25.25,0,0,1-.24-.17L2,3,.35,1.05a.26.26,0,0,1,0-.29A.25.25,0,0,1,.54.64Z"/><path class="cls-2" d="M3.14,5.39l-.87-2.5L.54.89l2.6.5L5.73.89,4,2.89l-.86,2.5m0,.5a.51.51,0,0,0,.47-.34l.83-2.41L6.11,1.21A.49.49,0,0,0,5.73.39H5.64L3.14.88.63.39H.54a.49.49,0,0,0-.38.82L1.83,3.14l.83,2.41a.51.51,0,0,0,.48.34Z"/></svg>