<svg id="Layer_1" data-name="Layer 1" xmlns="http://www.w3.org/2000/svg" viewBox="0 0 64 64"><defs><style>.cls-1{fill:#fff;}</style></defs><path class="cls-1" d="M28.33,61a6.43,6.43,0,0,1-1-.08c-4.13-.65-5.6-4.74-8.94-15.45C7.73,42.17,3.64,40.7,3,36.57s2.78-6.79,11.94-13.28c-.14-11.21,0-15.55,3.72-17.45S26,6.38,35,13.08c10.62-3.59,14.79-4.81,17.75-1.85S54.45,18.37,50.86,29c6.7,9,9.15,12.58,7.25,16.31S51.86,49.16,40.65,49C34.68,57.46,32,61,28.33,61ZM10.6,35.36a110.6,110.6,0,0,0,11.67,4,3.5,3.5,0,0,1,2.3,2.31,110.25,110.25,0,0,0,4,11.66A112.57,112.57,0,0,0,36,43.49,3.48,3.48,0,0,1,38.85,42h0a112.71,112.71,0,0,0,12.33-.21,109.29,109.29,0,0,0-7.08-10.1,3.5,3.5,0,0,1-.51-3.22,113,113,0,0,0,3.62-11.79,110,110,0,0,0-11.8,3.61,3.51,3.51,0,0,1-3.22-.51,107.94,107.94,0,0,0-10.1-7.08,110.94,110.94,0,0,0-.2,12.34A3.52,3.52,0,0,1,20.46,28,109.88,109.88,0,0,0,10.6,35.36Z"/></svg>